<?xml version="1.0" encoding="utf-8"?>
<!-- Generator: Adobe Illustrator 16.0.0, SVG Export Plug-In . SVG Version: 6.00 Build 0)  -->
<!DOCTYPE svg PUBLIC "-//W3C//DTD SVG 1.1//EN" "http://www.w3.org/Graphics/SVG/1.1/DTD/svg11.dtd">
<svg version="1.1" xmlns="http://www.w3.org/2000/svg" xmlns:xlink="http://www.w3.org/1999/xlink" x="0px" y="0px"  viewBox="0 0 501 501" enable-background="new 0 0 501 501" xml:space="preserve">
<g id="Layer_1">
	<g>
		<path class="icon-circle-fill" d="M250.5,480.5c-61.4,0-119.2-23.9-162.6-67.4c-43.4-43.4-67.4-101.2-67.4-162.6S44.4,131.3,87.9,87.9
			c43.4-43.4,101.2-67.4,162.6-67.4s119.2,23.9,162.6,67.4c43.4,43.4,67.4,101.2,67.4,162.6s-23.9,119.2-67.4,162.6
			C369.7,456.6,311.9,480.5,250.5,480.5z"/>
		<path class="icon-circle-stroke" d="M250.5,40.5c56.1,0,108.8,21.8,148.5,61.5c39.7,39.7,61.5,92.4,61.5,148.5S438.7,359.3,399,399
			c-39.7,39.7-92.4,61.5-148.5,61.5S141.7,438.7,102,399c-39.7-39.7-61.5-92.4-61.5-148.5S62.3,141.7,102,102
			C141.7,62.3,194.4,40.5,250.5,40.5 M250.5,0.5c-138.1,0-250,111.9-250,250s111.9,250,250,250s250-111.9,250-250
			S388.6,0.5,250.5,0.5L250.5,0.5z"/>
	</g>
</g>
<g id="Layer_2">
	<g>
		
			<line fill="none" class="icon-arrow" stroke-width="40" stroke-linecap="round" stroke-linejoin="round" x1="365.5" y1="197.6" x2="250.5" y2="312.6"/>
		
			<line fill="none" class="icon-arrow" stroke-width="40" stroke-linecap="round" stroke-linejoin="round" x1="250.5" y1="312.6" x2="135.5" y2="197.6"/>
	</g>
</g>
<g id="Layer_3">
	<rect x="0.5" y="0.5" fill="none" />
</g>
</svg>
